<?xml version="1.0" standalone="no"?>
<!DOCTYPE svg PUBLIC "-//W3C//DTD SVG 20010904//EN"
 "http://www.w3.org/TR/2001/REC-SVG-20010904/DTD/svg10.dtd">
<svg version="1.0" xmlns="http://www.w3.org/2000/svg"
 width="452.000000pt" height="452.000000pt" viewBox="0 0 452.000000 452.000000"
 preserveAspectRatio="xMidYMid meet">
<metadata>
Created by potrace 1.11, written by Peter Selinger 2001-2013
</metadata>
<g transform="translate(0.000000,452.000000) scale(0.100000,-0.100000)"
fill="#000000" stroke="none">
<path d="M834 4116 c-72 -17 -178 -67 -228 -107 -70 -58 -126 -194 -126 -306
0 -115 47 -239 117 -309 45 -45 156 -98 241 -115 84 -16 274 -6 371 20 40 11
77 23 82 28 12 12 38 132 30 137 -4 3 -24 -8 -44 -25 -121 -100 -370 -128
-520 -60 -61 28 -124 93 -155 159 -24 51 -27 69 -26 162 1 133 21 185 103 264
80 76 160 101 304 94 64 -3 118 -12 144 -23 51 -21 136 -109 149 -156 12 -42
31 -48 37 -12 11 57 7 201 -6 211 -48 39 -359 64 -473 38z"/>
<path d="M464 3971 c-91 -55 -151 -208 -132 -335 8 -59 58 -163 95 -201 27
-26 103 -71 103 -60 0 3 -15 25 -34 49 -59 78 -71 124 -71 276 0 127 2 138 27
190 15 30 35 65 44 78 20 27 9 28 -32 3z"/>
<path d="M1790 3174 c-85 -18 -196 -73 -244 -121 -125 -123 -148 -360 -50
-530 90 -157 344 -229 609 -174 130 27 142 34 153 78 28 110 27 111 -47 58
-86 -62 -148 -78 -296 -79 -161 0 -217 18 -291 94 -55 57 -69 79 -85 135 -15
55 -13 201 5 258 29 97 128 185 238 213 79 20 244 15 301 -10 54 -24 121 -94
142 -150 28 -73 40 -53 43 76 l3 116 -33 11 c-121 39 -330 51 -448 25z"/>
<path d="M1399 3018 c-60 -47 -110 -148 -117 -237 -8 -123 52 -258 142 -318
58 -40 75 -35 34 9 -97 104 -117 350 -42 500 13 26 28 49 34 53 13 8 13 25 1
25 -5 0 -29 -15 -52 -32z"/>
<path d="M2300 2293 c1 -5 15 -17 32 -28 17 -11 41 -33 52 -48 20 -27 21 -40
21 -336 l0 -308 -29 -37 c-15 -21 -39 -42 -52 -48 -46 -21 -25 -30 59 -26 46
3 89 8 95 12 9 5 12 114 12 411 0 358 -2 404 -16 409 -23 9 -174 7 -174 -1z"/>
<path d="M2573 2293 c-10 -4 -13 -95 -13 -409 0 -376 1 -405 18 -412 9 -4 80
-7 157 -7 136 0 142 1 200 30 46 23 67 41 88 76 74 122 25 276 -103 320 -37
13 -38 25 -5 51 65 51 82 147 41 234 -42 91 -115 124 -270 123 -55 0 -107 -3
-113 -6z m246 -81 c55 -27 76 -64 76 -132 0 -103 -58 -150 -182 -150 l-73 0 0
124 c0 145 7 173 47 178 44 6 95 -2 132 -20z m29 -358 c32 -4 52 -15 81 -45
46 -46 58 -93 41 -161 -23 -92 -97 -130 -229 -118 -84 8 -94 28 -99 191 -3 87
-1 134 6 138 12 7 128 4 200 -5z"/>
<path d="M2970 2262 c0 -5 10 -17 21 -28 58 -51 77 -175 39 -249 -11 -21 -18
-41 -15 -43 2 -2 20 6 41 18 36 23 84 103 84 144 0 36 -51 113 -88 133 -47 26
-82 37 -82 25z"/>
<path d="M3060 1874 c0 -3 11 -21 25 -41 56 -83 56 -216 -1 -290 -14 -19 -24
-37 -20 -40 13 -13 97 50 120 90 35 60 41 104 20 157 -21 55 -48 86 -96 111
-39 20 -48 23 -48 13z"/>
<path d="M3010 1241 c0 -5 14 -14 31 -21 75 -31 127 -103 464 -632 58 -92 111
-170 116 -174 13 -7 36 14 41 37 2 9 -69 129 -157 268 -88 138 -198 311 -244
384 -46 72 -88 135 -95 139 -16 11 -156 10 -156 -1z"/>
<path d="M3264 1235 c-3 -6 63 -117 145 -246 82 -129 182 -285 221 -347 40
-63 76 -110 80 -105 5 4 24 35 43 68 75 132 245 423 271 465 35 56 102 127
139 146 15 8 27 18 27 23 0 5 -63 9 -140 9 -77 1 -140 -3 -140 -7 0 -4 14 -17
30 -29 34 -25 39 -61 17 -115 -12 -28 -232 -414 -244 -426 -8 -10 -44 40 -157
217 -165 257 -179 293 -131 330 15 12 21 23 15 27 -18 11 -171 3 -176 -10z"/>
</g>
</svg>
