<?xml version="1.0" encoding="UTF-8"?>
<!-- Created with Inkscape (http://www.inkscape.org/) -->
<svg width="260" height="22" version="1.1" viewBox="0 0 68.792 5.8208" xmlns="http://www.w3.org/2000/svg" xmlns:cc="http://creativecommons.org/ns#" xmlns:dc="http://purl.org/dc/elements/1.1/" xmlns:rdf="http://www.w3.org/1999/02/22-rdf-syntax-ns#">
 <metadata>
  <rdf:RDF>
   <cc:Work rdf:about="">
    <dc:format>image/svg+xml</dc:format>
    <dc:type rdf:resource="http://purl.org/dc/dcmitype/StillImage"/>
    <dc:title/>
   </cc:Work>
  </rdf:RDF>
 </metadata>
 <g transform="translate(0 -291.18)">
  <g aria-label="Centro Cultural BV">
   <path d="m64.678 291.95 1.5193 3.9481 1.5158-3.9481h-0.57878v-0.36863h1.509v0.36863h-0.49954l-1.8362 4.7749h-0.59256l-1.8259-4.7749h-0.51332v-0.36863h1.8741v0.36863zm-4.6715 4.4097h1.0301q0.62012 0 0.90606-0.26872t0.28594-0.85438q0-0.58222-0.28594-0.8475-0.2825-0.26871-0.90606-0.26871h-1.0301zm0-2.6045h0.87505q0.565 0 0.82338-0.21704 0.26183-0.21704 0.26183-0.68558 0-0.47198-0.26183-0.68557-0.25838-0.21704-0.82338-0.21704h-0.87505zm-1.3539 2.9697v-0.36518h0.65457v-4.4097h-0.65457v-0.36863h2.539q0.77859 0 1.1713 0.3204 0.39618 0.31694 0.39618 0.95084 0 0.4582-0.27561 0.73036-0.27216 0.27217-0.79926 0.33418 0.65457 0.0827 0.99219 0.4203 0.34106 0.33417 0.34106 0.89917 0 0.76481-0.48231 1.1265-0.48231 0.36174-1.5055 0.36174zm-3.4485-0.36518h0.59945v0.36518h-1.8431v-0.36518h0.60978v-4.6302h-0.60978v-0.36518h1.2437zm-2.8422-0.78548v-0.77515h-0.81649q-0.47198 0-0.7028 0.20326-0.23082 0.20326-0.23082 0.62356 0 0.38241 0.23427 0.60634 0.23427 0.22393 0.6339 0.22393 0.39618 0 0.63734-0.2446 0.2446-0.2446 0.2446-0.63734zm0.6339-1.1369v1.9224h0.565v0.36518h-1.1989v-0.39619q-0.21015 0.25494-0.48576 0.37552-0.27561 0.12058-0.64423 0.12058-0.60978 0-0.96807-0.32384t-0.35829-0.87506q0-0.56844 0.40997-0.88194 0.40997-0.3135 1.1576-0.3135h0.88884v-0.2515q0-0.41685-0.25494-0.64423-0.25149-0.23082-0.70969-0.23082-0.37896 0-0.60289 0.17225-0.22393 0.17226-0.27905 0.50988h-0.32728v-0.7407q0.33073-0.14125 0.64079-0.21015 0.3135-0.0723 0.60978-0.0723 0.76137 0 1.1576 0.37896 0.39963 0.37551 0.39963 1.0955zm-3.4451-1.3815v0.9164h-0.36518q-0.01722-0.27216-0.15158-0.40652-0.13436-0.13436-0.39274-0.13436-0.46853 0-0.72002 0.32384-0.24805 0.32384-0.24805 0.93017v1.6743h0.7338v0.36518h-1.9396v-0.36518h0.57189v-2.9352h-0.60634v-0.36174h1.2402v0.65113q0.18604-0.38241 0.47887-0.565 0.29283-0.18603 0.71314-0.18603 0.15503 0 0.32384 0.0241 0.17225 0.0241 0.36174 0.0689zm-5.4226 7e-3h1.1851v3.297h0.59945v0.36518h-1.2333v-0.64768q-0.1757 0.36518-0.45475 0.55811-0.27905 0.18948-0.64768 0.18948-0.60978 0-0.89917-0.34451-0.28594-0.34796-0.28594-1.0886v-1.9603h-0.57189v-0.36863h1.2092v2.1325q0 0.66835 0.16192 0.91639 0.16536 0.24805 0.58567 0.24805 0.44097 0 0.67179-0.32384t0.23082-0.94051v-1.664h-0.55122zm-4.5751 0.36863h-0.5581v-0.36863h0.5581v-1.1369h0.63734v1.1369h1.192v0.36863h-1.192v2.3254q0 0.46509 0.08957 0.596t0.33073 0.13091q0.24805 0 0.36174-0.14469 0.11369-0.14814 0.12058-0.47542h0.47887q-0.02756 0.49953-0.27216 0.73036-0.2446 0.23082-0.74414 0.23082-0.54777 0-0.77515-0.24116-0.22738-0.2446-0.22738-0.82682zm-1.5744 2.9283h0.59945v0.36518h-1.8431v-0.36518h0.60978v-4.6302h-0.60978v-0.36518h1.2437zm-3.4968-3.297h1.1851v3.297h0.59945v0.36518h-1.2333v-0.64768q-0.1757 0.36518-0.45475 0.55811-0.27905 0.18948-0.64768 0.18948-0.60978 0-0.89917-0.34451-0.28594-0.34796-0.28594-1.0886v-1.9603h-0.57189v-0.36863h1.2092v2.1325q0 0.66835 0.16192 0.91639 0.16536 0.24805 0.58567 0.24805 0.44097 0 0.67179-0.32384t0.23082-0.94051v-1.664h-0.55122zm-2.9249 2.3013q-0.22738 0.72002-0.76481 1.0921-0.53399 0.36863-1.3539 0.36863-0.50298 0-0.93362-0.17226-0.43064-0.17225-0.76481-0.50643-0.38585-0.38585-0.57533-0.87505-0.18604-0.49265-0.18604-1.1128 0-1.1989 0.69246-1.9327 0.69246-0.73726 1.8259-0.73726 0.4203 0 0.89572 0.11025 0.47542 0.11024 1.0232 0.33417v1.1851h-0.3893q-0.12747-0.64767-0.51332-0.95429-0.38241-0.30661-1.0749-0.30661-0.82338 0-1.2471 0.58567-0.42375 0.58222-0.42375 1.7156 0 1.13 0.42375 1.7157 0.42375 0.58222 1.2471 0.58222 0.57533 0 0.9474-0.27216 0.37207-0.27561 0.53744-0.81993zm-9.3431 1.1196q0.50987 0 0.76826-0.40307 0.26183-0.40308 0.26183-1.1886t-0.26183-1.1851q-0.25838-0.40308-0.76826-0.40308t-0.7717 0.40308q-0.25838 0.39963-0.25838 1.1851t0.26183 1.1886q0.26183 0.40307 0.76826 0.40307zm0 0.34107q-0.79926 0-1.285-0.5271-0.48576-0.53055-0.48576-1.4056 0-0.87506 0.48231-1.4022 0.48576-0.5271 1.2885-0.5271t1.285 0.5271q0.48576 0.52709 0.48576 1.4022 0 0.87505-0.48576 1.4056-0.48231 0.5271-1.285 0.5271zm-2.1256-3.7689v0.9164h-0.36518q-0.01723-0.27216-0.15158-0.40652-0.13436-0.13436-0.39274-0.13436-0.46853 0-0.72002 0.32384-0.24805 0.32384-0.24805 0.93017v1.6743h0.7338v0.36518h-1.9396v-0.36518h0.57189v-2.9352h-0.60634v-0.36174h1.2402v0.65113q0.18604-0.38241 0.47887-0.565 0.29283-0.18603 0.71314-0.18603 0.15503 0 0.32384 0.0241 0.17226 0.0241 0.36174 0.0689zm-5.4501 0.37552h-0.5581v-0.36863h0.5581v-1.1369h0.63734v1.1369h1.192v0.36863h-1.192v2.3254q0 0.46509 0.08957 0.596t0.33073 0.13091q0.24805 0 0.36174-0.14469 0.11369-0.14814 0.12058-0.47542h0.47887q-0.02756 0.49953-0.27216 0.73036-0.2446 0.23082-0.74414 0.23082-0.54777 0-0.77515-0.24116-0.22738-0.2446-0.22738-0.82682zm-5.0195 3.2935v-0.36518h0.57189v-2.9284h-0.60634v-0.36863h1.2402v0.65113q0.1757-0.37207 0.45475-0.56155 0.2825-0.18948 0.65457-0.18948 0.60634 0 0.89228 0.34795 0.28594 0.34795 0.28594 1.0852v1.9637h0.565v0.36518h-1.7501v-0.36518h0.54777v-1.7639q0-0.67179-0.16536-0.91984-0.16536-0.25149-0.58222-0.25149-0.44097 0-0.67179 0.32384-0.23082 0.32039-0.23082 0.93706v1.6743h0.55122v0.36518zm-0.64079-1.764h-2.732v0.0276q0 0.7407 0.27905 1.1197 0.27905 0.37551 0.82338 0.37551 0.41686 0 0.68213-0.21704 0.26872-0.22048 0.37552-0.65112h0.50987q-0.15158 0.60289-0.56155 0.90606-0.40652 0.30317-1.0714 0.30317-0.80271 0-1.2919-0.5271-0.48576-0.53055-0.48576-1.4056 0-0.86817 0.47887-1.3987 0.47887-0.53054 1.2575-0.53054 0.83027 0 1.2747 0.51331 0.44442 0.50988 0.46164 1.4848zm-0.74759-0.36518q-0.020671-0.64079-0.27216-0.96463-0.24805-0.32728-0.71658-0.32728-0.43753 0-0.68902 0.32728-0.25149 0.32729-0.30661 0.96463zm-3.5037 0.76826q-0.22738 0.72002-0.76481 1.0921-0.53399 0.36863-1.3539 0.36863-0.50298 0-0.93362-0.17226-0.43064-0.17225-0.76481-0.50643-0.38585-0.38585-0.57533-0.87505-0.18604-0.49265-0.18604-1.1128 0-1.1989 0.69246-1.9327 0.69246-0.73726 1.8259-0.73726 0.4203 0 0.89572 0.11025 0.47542 0.11024 1.0232 0.33417v1.1851h-0.3893q-0.12747-0.64767-0.51332-0.95429-0.38241-0.30661-1.0749-0.30661-0.82338 0-1.2471 0.58567-0.42375 0.58222-0.42375 1.7156 0 1.13 0.42375 1.7157 0.42375 0.58222 1.2471 0.58222 0.57533 0 0.9474-0.27216 0.37207-0.27561 0.53743-0.81993z" stroke-width=".20552"/>
  </g>
 </g>
</svg>
