<?xml version="1.0" encoding="UTF-8" standalone="no"?>
<!-- Created with Inkscape (http://www.inkscape.org/) -->

<svg
   xmlns:dc="http://purl.org/dc/elements/1.1/"
   xmlns:cc="http://creativecommons.org/ns#"
   xmlns:rdf="http://www.w3.org/1999/02/22-rdf-syntax-ns#"
   xmlns:svg="http://www.w3.org/2000/svg"
   xmlns="http://www.w3.org/2000/svg"
   xmlns:sodipodi="http://sodipodi.sourceforge.net/DTD/sodipodi-0.dtd"
   xmlns:inkscape="http://www.inkscape.org/namespaces/inkscape"
   width="530"
   height="530"
   version="1.1"
   viewBox="0 0 140.23 140.23"
   id="svg8"
   sodipodi:docname="logo.svg"
   inkscape:version="0.92.4 5da689c313, 2019-01-14">
  <defs
     id="defs12">
    <filter
       inkscape:collect="always"
       style="color-interpolation-filters:sRGB"
       id="filter875"
       x="-0.055116124"
       width="1.1102322"
       y="-0.27205585"
       height="1.5441117">
      <feGaussianBlur
         inkscape:collect="always"
         stdDeviation="2.5951078"
         id="feGaussianBlur877" />
    </filter>
    <filter
       inkscape:collect="always"
       style="color-interpolation-filters:sRGB"
       id="filter879"
       x="-0.053996653"
       width="1.1079933"
       y="-0.38807719"
       height="1.7761544">
      <feGaussianBlur
         inkscape:collect="always"
         stdDeviation="2.5951078"
         id="feGaussianBlur881" />
    </filter>
    <filter
       inkscape:collect="always"
       style="color-interpolation-filters:sRGB"
       id="filter883"
       x="-0.074844277"
       width="1.1496886"
       y="-0.39270429"
       height="1.7854086">
      <feGaussianBlur
         inkscape:collect="always"
         stdDeviation="2.5951078"
         id="feGaussianBlur885" />
    </filter>
  </defs>
  <sodipodi:namedview
     pagecolor="#ffffff"
     bordercolor="#666666"
     borderopacity="1"
     objecttolerance="10"
     gridtolerance="10"
     guidetolerance="10"
     inkscape:pageopacity="0"
     inkscape:pageshadow="2"
     inkscape:window-width="1920"
     inkscape:window-height="1009"
     id="namedview10"
     showgrid="false"
     inkscape:zoom="1.2594506"
     inkscape:cx="167.56896"
     inkscape:cy="282.0326"
     inkscape:window-x="0"
     inkscape:window-y="0"
     inkscape:window-maximized="1"
     inkscape:current-layer="g6"
     inkscape:snap-bbox="true"
     inkscape:bbox-paths="true"
     inkscape:bbox-nodes="true"
     inkscape:snap-bbox-edge-midpoints="true"
     inkscape:snap-bbox-midpoints="true"
     inkscape:snap-nodes="false"
     inkscape:snap-global="true"
     inkscape:snap-page="true" />
  <metadata
     id="metadata2">
    <rdf:RDF>
      <cc:Work
         rdf:about="">
        <dc:format>image/svg+xml</dc:format>
        <dc:type
           rdf:resource="http://purl.org/dc/dcmitype/StillImage" />
        <dc:title />
      </cc:Work>
    </rdf:RDF>
  </metadata>
  <g
     transform="translate(0 -156.77)"
     id="g6"
     style="fill:#4e4e4e;fill-opacity:1">
    <path
       inkscape:connector-curvature="0"
       d="m 88.500354,187.24231 c 5.3e-4,-0.0229 0.30053,-0.63187 0.66649,-1.3532 1.1539,-2.2744 0.83224,-4.6338 -0.90085,-6.6076 -0.45823,-0.52189 -0.83314,-1.0158 -0.83314,-1.0975 0,-0.40865 2.4733,0.7701 3.2995,1.5725 1.2652,1.2287 1.6952,2.6713 1.2455,4.1783 -0.35921,1.2038 -1.9485,2.949 -2.9158,3.202 -0.30953,0.0809 -0.56229,0.12841 -0.56167,0.10548 z m 21.308996,4.0195 c -1.9647,-3.1134 -4.679,-7.3899 -6.0319,-9.5032 -1.3529,-2.1133 -2.4112,-3.9211 -2.3517,-4.0172 0.0594,-0.0961 1.3441,-0.20347 2.8548,-0.23854 l 2.7468,-0.0638 -0.92053,0.77546 c -0.90371,0.7613 -0.91465,0.79507 -0.59898,1.8487 0.34102,1.1382 2.3272,4.5099 5.8125,9.8673 l 2.1229,3.2632 3.2503,-5.6625 c 1.7876,-3.1144 3.3857,-6.0546 3.5513,-6.5337 0.41023,-1.187 0.11474,-2.1424 -0.82865,-2.6791 -0.43369,-0.24676 -0.78929,-0.53079 -0.79022,-0.63119 -8e-4,-0.10039 1.7978,-0.17643 3.9972,-0.16896 3.7454,0.0127 4.7759,0.20226 3.4269,0.63041 -0.98496,0.31262 -2.8156,2.2162 -4.0454,4.2066 -0.65002,1.052 -2.7154,4.5521 -4.5896,7.7779 -1.8743,3.2258 -3.5486,6.0731 -3.7207,6.3273 -0.2696,0.39822 -0.8073,-0.32129 -3.885,-5.1986 z m -63.718995,5.7143 c -5.3875,-3.4166 -5.6939,-12.056 -0.55381,-15.614 0.61399,-0.425 1.1658,-0.72331 1.2262,-0.66289 0.06042,0.0604 -0.29531,0.75242 -0.79051,1.5378 -1.5999,2.5374 -2.1256,6.4438 -1.3245,9.8417 0.47342,2.0081 0.95532,3.0071 2.1799,4.5189 1.0743,1.3264 0.89947,1.416 -0.73723,0.37806 z m -27.991,0.21524 c -1.3613,-0.70086 -2.8222,-2.2952 -3.6582,-3.9924 -0.57932,-1.1761 -0.7406,-1.9252 -0.81492,-3.7852 -0.14404,-3.6047 0.95592,-6.1257 3.4661,-7.944 1.399,-1.0134 1.7498,-1.0183 1.0349,-0.0144 -1.3495,1.8951 -1.9576,3.7616 -2.0845,6.3975 -0.18847,3.9139 0.66466,6.8898 2.5444,8.8757 0.88033,0.92998 0.71827,1.0837 -0.48782,0.46278 z m 71.732999,1.7371 c 0,-0.0746 0.35322,-0.62321 0.78493,-1.2192 1.6489,-2.2762 1.5999,-5.4226 -0.12441,-7.9849 -0.97946,-1.4555 -0.87696,-1.5814 0.65227,-0.80122 3.4815,1.7761 4.2548,5.6448 1.6723,8.3658 -0.88313,0.93048 -2.9851,2.0849 -2.9851,1.6395 z m -6.189299,-12.125 c 0.87184,-0.39571 1.2647,-0.78853 1.6604,-1.6604 0.64943,-1.4309 0.65193,-2.1808 0.01194,-3.5904 -0.76422,-1.6832 -3.251,-2.725 -5.2123,-2.1835 -1.0803,0.29829 -1.2011,0.79432 -1.2011,4.9317 v 3.0325 l 1.7995,-0.006 c 1.2024,-0.004 2.1785,-0.17785 2.9416,-0.52419 z m 2.3713,10.51 c 1.696799,-1.2415 2.318499,-4.1576 1.267099,-5.9432 -0.944089,-1.6035 -2.001199,-2.0223 -5.380299,-2.1314 l -2.9992,-0.0969 v 2.8433 c 0,3.2905 0.36635,5.0604 1.1668,5.637 0.88126,0.63486 4.9442,0.42384 5.9455,-0.3088 z m -8.3816,2.3422 -0.86938,-0.0931 0.13918,-21.96 2.9325,-0.0794 c 3.3995,-0.092 4.7437,0.20443 6.1378,1.3536 2.641199,2.1771 2.675799,6.5353 0.06649,8.3786 l -0.83312,0.58856 0.78016,0.28337 c 2.738299,0.99462 4.109599,2.8647 4.109599,5.6043 0,2.6495 -1.7226,4.9582 -4.262599,5.7131 -1.3721,0.40776 -5.397,0.51129 -8.2008,0.21093 z m -8.0616,-0.0135 c 0,-0.13603 0.37083,-0.40093 0.82406,-0.58867 0.45323,-0.18773 1.143,-0.82304 1.5329,-1.4118 l 0.70886,-1.0705 0.07698,-7.6181 c 0.07565,-7.4868 0.06646,-7.6388 -0.53319,-8.8178 -0.39848,-0.78347 -0.95676,-1.3847 -1.6092,-1.7329 -0.54946,-0.29326 -0.99934,-0.62317 -0.99973,-0.73314 -3.95e-4,-0.10997 1.199,-0.19994 2.6652,-0.19994 h 2.666 v 22.328 l -2.666,0.0459 c -1.4941,0.0258 -2.666,-0.0628 -2.666,-0.20139 z m 38.097995,-5.0441 c -1.944,-3.0425 -4.6507,-7.2818 -6.0148,-9.4205 -2.662196,-4.174 -4.663796,-6.4376 -6.116296,-6.917 -1.585,-0.52309 -1.0225,-0.8158 1.4122,-0.73494 l 2.3193,0.077 2.883396,4.5321 c 1.5859,2.4927 3.9455,6.2117 5.2437,8.2645 1.2982,2.0528 2.985,4.7105 3.7484,5.906 1.3797,2.1605 1.3855,2.1787 0.96126,2.9992 -0.23479,0.45402 -0.53389,0.82549 -0.66467,0.82549 -0.13079,0 -1.8284,-2.4893 -3.7724,-5.5318 z m -52.704995,5.1425 c -5.2628,-1.1969 -8.2124,-4.2868 -8.8435,-9.2642 -0.41748,-3.2928 0.23477,-6.3738 1.7771,-8.3943 1.6238,-2.1273 3.3018,-3.2744 6.0079,-4.107 3.192,-0.98218 8.7394,-0.92954 12.868,0.12211 l 1.3309,0.33898 0.07773,2.7824 c 0.11529,4.1264 -0.2429,5.0338 -1.072,2.7157 -0.64036,-1.7905 -1.8385,-3.1121 -3.61,-3.982 -1.4273,-0.7009 -1.7459,-0.75007 -4.8599,-0.75007 -3.0922,0 -3.4478,0.0539 -4.932,0.74707 -3.0226,1.4117 -4.6878,3.6777 -5.1448,7.001 -0.61851,4.4977 1.0491,8.3646 4.3309,10.043 4.2182,2.1568 10.662,1.5236 14.328,-1.4078 1.1276,-0.90162 1.4146,-0.70019 1.0541,0.73981 -0.13848,0.55323 -0.32357,1.3257 -0.4113,1.7167 -0.14562,0.64895 -0.37416,0.76197 -2.626,1.2988 -3.1445,0.74957 -7.9215,0.93568 -10.275,0.40032 z m -28.655,-0.0132 c -4.8254,-1.2156 -7.7096,-4.1194 -8.4788,-8.5368 -0.72026,-4.1361 0.51276,-8.4831 3.0277,-10.674 3.2967,-2.8721 8.5247,-3.899 14.855,-2.9182 4.385,0.67944 4.1276,0.49637 4.1603,2.9582 0.01544,1.1613 -0.03001,2.6813 -0.10099,3.3778 -0.13046,1.2801 -0.48697,1.6563 -0.75783,0.79979 -0.7523,-2.379 -2.5928,-4.4823 -4.516,-5.1608 -0.67568,-0.2384 -2.195,-0.37041 -4.2507,-0.36933 -2.9645,0.002 -3.3222,0.0584 -4.8764,0.7745 -2.1256,0.97938 -4.0838,3.0482 -4.7511,5.0192 -0.67601,1.9969 -0.63515,5.7496 0.08242,7.5702 1.2299,3.1205 3.7188,4.9359 7.5281,5.4911 3.8384,0.55945 7.617,-0.30285 10.494,-2.3948 0.70337,-0.51145 1.3342,-0.87459 1.4018,-0.80698 0.06761,0.0676 -0.06827,0.96957 -0.30195,2.0044 l -0.42488,1.8814 -2.3099,0.60087 c -2.956,0.76896 -8.4718,0.96517 -10.781,0.38351 z"
       style="fill:#000000;fill-opacity:1;filter:url(#filter875)"
       id="path817" />
    <g
       id="g821"
       style="font-style:normal;font-weight:normal;font-size:23.63625145px;line-height:1.25;font-family:sans-serif;text-align:center;letter-spacing:0px;word-spacing:0px;text-anchor:middle;fill:#000000;fill-opacity:1;stroke:none;stroke-width:0.5937447;filter:url(#filter879)"
       aria-label="Centro Cultural">
      <path
         d="m 127.78764,234.72037 v -1.48909 h -3.14362 v -11.10903 h -1.58363 v 12.59812 z m -7.02439,0 v -3.14362 h 0.77999 v -1.48909 h -0.77999 v -4.3018 c 0,-1.39453 -0.14182,-1.9618 -0.59091,-2.62362 -0.59091,-0.80363 -1.48908,-1.25272 -2.57635,-1.25272 -1.22909,0 -2.29272,0.63818 -2.78908,1.65454 -0.28363,0.54363 -0.35454,1.06363 -0.35454,2.33999 v 4.18361 h -0.78 v 1.48909 h 0.78 v 3.14362 h 1.58363 v -3.14362 h 3.14362 v 3.14362 z m -1.58363,-4.63271 H 116.036 v -4.93997 c 0,-1.06364 0.66181,-1.77272 1.6309,-1.77272 0.92181,0 1.51272,0.68545 1.51272,1.74908 z m -11.201,1.39454 2.7418,3.23817 h 2.07999 l -3.07271,-3.49817 c 1.74908,-0.70909 2.95453,-2.4109 2.95453,-4.3727 0,-2.00909 -1.22909,-4.72725 -5.4127,-4.72725 h -0.87454 v 12.59812 h 1.58363 z m 0,-7.89451 c 1.74908,0.0709 3.11998,1.51272 3.11998,3.26181 0,1.74908 -1.39454,3.19089 -3.11998,3.23816 z m -10.03396,7.35088 c 0,1.27635 0.09454,1.79635 0.354544,2.33999 0.519997,1.01635 1.559992,1.6309 2.789076,1.6309 1.11091,0 2.00908,-0.42546 2.57635,-1.22909 0.44909,-0.66181 0.59091,-1.22908 0.59091,-2.62362 v -8.9345 h -1.58363 v 9.57268 c -0.0473,1.06363 -0.56727,1.74908 -1.48908,1.74908 -0.99273,0 -1.607269,-0.73272 -1.654541,-1.77272 v -9.54904 H 97.94466 Z m -3.573878,3.7818 v -11.10904 h 2.363625 v -1.48908 h -6.310879 v 1.48908 h 2.363625 v 11.10904 z m -2.729983,0 v -1.48909 h -3.143621 v -11.10903 h -1.583629 v 12.59812 z m -13.177584,-3.7818 c 0,1.27635 0.09454,1.79635 0.354543,2.33999 0.519998,1.01635 1.559993,1.6309 2.789078,1.6309 1.110904,0 2.009081,-0.42546 2.576352,-1.22909 0.449088,-0.66181 0.590906,-1.22908 0.590906,-2.62362 v -8.9345 h -1.583629 v 9.57268 c -0.04727,1.06363 -0.56727,1.74908 -1.489084,1.74908 -0.992722,0 -1.607265,-0.73272 -1.654537,-1.77272 v -9.54904 h -1.583629 z m -1.492036,-10.47086 v -1.60727 c -0.56727,0.14182 -1.087267,0.30727 -1.559992,0.49636 -2.883623,1.22909 -4.939977,4.11271 -4.939977,7.4927 0,3.33271 2.032718,6.21633 4.939977,7.46905 0.472725,0.21273 0.992722,0.37818 1.559992,0.49636 v -1.6309 c -0.638178,-0.18909 -1.063631,-0.42545 -1.559992,-0.63818 -1.985445,-1.1109 -3.356348,-3.2618 -3.356348,-5.69633 0,-2.43454 1.347266,-4.5618 3.356348,-5.69634 0.496361,-0.30727 1.063631,-0.47273 1.559992,-0.68545 z m -20.152489,1.44181 c -3.592711,0 -6.49997,2.90726 -6.49997,6.49997 0,3.59271 2.907259,6.49997 6.49997,6.49997 3.59271,0 6.499969,-2.90726 6.499969,-6.49997 0,-3.59271 -2.907259,-6.49997 -6.499969,-6.49997 z m 0,1.58363 c 2.718168,0 4.91634,2.19817 4.91634,4.91634 0,2.71817 -2.198172,4.91634 -4.91634,4.91634 -2.718169,0 -4.916341,-2.19817 -4.916341,-4.91634 0,-2.71817 2.198172,-4.91634 4.916341,-4.91634 z m -12.500992,7.98905 2.741805,3.23817 h 2.07999 l -3.072712,-3.49817 c 1.749082,-0.70909 2.954531,-2.4109 2.954531,-4.3727 0,-2.00909 -1.229085,-4.72725 -5.412701,-4.72725 h -0.874542 v 12.59812 h 1.583629 z m 0,-7.89451 c 1.749083,0.0709 3.119985,1.51272 3.119985,3.26181 0,1.74908 -1.394539,3.19089 -3.119985,3.23816 z m -5.252048,11.13268 v -11.10904 h 2.363626 v -1.48908 h -6.31088 v 1.48908 h 2.363626 v 11.10904 z m -5.232475,0 v -12.59812 h -1.583629 v 3.33271 l -3.119985,-3.33271 h -1.583629 v 12.59812 h 1.583629 v -10.44723 l 3.119985,3.35635 v 7.09088 z m -8.506096,0 v -1.48909 h -3.143622 v -1.65453 h 3.923618 v -1.48909 h -3.923618 v -6.47633 h 3.143622 v -1.48908 h -4.727251 v 7.96541 h -0.779996 v 1.48909 h 0.779996 v 3.14362 z m -6.384743,-14.25266 v -1.60727 c -0.56727,0.14182 -1.087267,0.30727 -1.559992,0.49636 -2.883623,1.22909 -4.939977,4.11271 -4.939977,7.4927 0,3.33271 2.032718,6.21633 4.939977,7.46905 0.472725,0.21273 0.992722,0.37818 1.559992,0.49636 v -1.6309 c -0.638178,-0.18909 -1.063631,-0.42545 -1.559992,-0.63818 -1.985445,-1.1109 -3.356348,-3.2618 -3.356348,-5.69633 0,-2.43454 1.347266,-4.5618 3.356348,-5.69634 0.496361,-0.30727 1.063631,-0.47273 1.559992,-0.68545 z"
         style="font-style:normal;font-variant:normal;font-weight:normal;font-stretch:normal;font-size:23.63625145px;font-family:'Avenida Std';-inkscape-font-specification:'Avenida Std';text-align:center;text-anchor:middle;fill:#000000;fill-opacity:1;stroke-width:0.5937447"
         id="path819" />
    </g>
    <g
       id="g825"
       style="font-style:normal;font-weight:normal;font-size:23.63625145px;line-height:1.25;font-family:sans-serif;text-align:center;letter-spacing:0px;word-spacing:0px;text-anchor:middle;fill:#000000;fill-opacity:1;stroke:none;stroke-width:0.5937447;filter:url(#filter883)"
       aria-label="Barra Velha">
      <path
         d="m 110.94312,269.4054 v -3.14363 h 0.78 v -1.48908 h -0.78 v -4.3018 c 0,-1.39454 -0.14182,-1.96181 -0.59091,-2.62362 -0.5909,-0.80363 -1.48908,-1.25272 -2.57635,-1.25272 -1.22908,0 -2.29272,0.63818 -2.78908,1.65453 -0.28363,0.54364 -0.35454,1.06364 -0.35454,2.33999 v 4.18362 h -0.78 v 1.48908 h 0.78 v 3.14363 h 1.58363 v -3.14363 h 3.14362 v 3.14363 z m -1.58363,-4.63271 h -3.14362 v -4.93998 c 0,-1.06363 0.66181,-1.77272 1.6309,-1.77272 0.92181,0 1.51272,0.68546 1.51272,1.74909 z m -7.09753,4.63271 v -3.14363 h 0.80364 v -1.48908 h -0.80364 v -7.96542 h -1.58362 v 7.96542 h -3.04908 v -7.96542 h -1.583629 v 7.96542 h -0.779997 v 1.48908 h 0.779997 v 3.14363 h 1.583629 v -3.14363 h 3.04908 v 3.14363 z m -7.653707,0 v -1.48909 h -3.143622 v -11.10904 h -1.583628 v 12.59813 z m -6.946105,0 v -1.48909 h -3.143621 v -1.65454 h 3.923617 v -1.48908 h -3.923617 v -6.47633 h 3.143621 v -1.48909 h -4.72725 v 7.96542 h -0.779997 v 1.48908 h 0.779997 v 3.14363 z m -10.112252,0 h 1.678174 l 2.718169,-15.76538 h -1.51272 l -1.985445,12.26721 -1.985445,-12.26721 h -1.607265 z m -9.724472,0 v -3.14363 h 0.779996 v -1.48908 h -0.779996 v -4.3018 c 0,-1.39454 -0.141818,-1.96181 -0.590906,-2.62362 -0.590907,-0.80363 -1.489084,-1.25272 -2.576352,-1.25272 -1.229085,0 -2.292716,0.63818 -2.789077,1.65453 -0.283635,0.54364 -0.354544,1.06364 -0.354544,2.33999 v 4.18362 h -0.779996 v 1.48908 h 0.779996 v 3.14363 h 1.583629 v -3.14363 h 3.143621 v 3.14363 z m -1.583629,-4.63271 h -3.143621 v -4.93998 c 0,-1.06363 0.661815,-1.77272 1.630901,-1.77272 0.921814,0 1.51272,0.68546 1.51272,1.74909 z m -11.200997,1.39454 2.741805,3.23817 h 2.07999 l -3.072713,-3.49817 c 1.749083,-0.70909 2.954532,-2.4109 2.954532,-4.37271 0,-2.00908 -1.229086,-4.72725 -5.412702,-4.72725 h -0.874541 v 12.59813 h 1.583629 z m 0,-7.89451 c 1.749082,0.0709 3.119985,1.51272 3.119985,3.2618 0,1.74909 -1.394539,3.1909 -3.119985,3.23817 z m -7.986468,7.89451 2.741805,3.23817 h 2.07999 l -3.072712,-3.49817 c 1.749082,-0.70909 2.954531,-2.4109 2.954531,-4.37271 0,-2.00908 -1.229085,-4.72725 -5.412701,-4.72725 h -0.874542 v 12.59813 h 1.583629 z m 0,-7.89451 c 1.749083,0.0709 3.119985,1.51272 3.119985,3.2618 0,1.74909 -1.394538,3.1909 -3.119985,3.23817 z m -3.880778,11.13268 v -3.14363 h 0.779997 v -1.48908 h -0.779997 v -4.3018 c 0,-1.39454 -0.141817,-1.96181 -0.590906,-2.62362 -0.590906,-0.80363 -1.489084,-1.25272 -2.576351,-1.25272 -1.229086,0 -2.292717,0.63818 -2.789078,1.65453 -0.283635,0.54364 -0.354544,1.06364 -0.354544,2.33999 v 4.18362 h -0.779996 v 1.48908 h 0.779996 v 3.14363 h 1.583629 v -3.14363 h 3.143621 v 3.14363 z m -1.583629,-4.63271 h -3.143621 v -4.93998 c 0,-1.06363 0.661815,-1.77272 1.630901,-1.77272 0.921814,0 1.51272,0.68546 1.51272,1.74909 z M 30.090518,255.1291 c 0.921813,0 1.678173,0.75636 1.678173,1.67817 0,0.92182 -0.75636,1.65454 -1.678173,1.65454 z m -0.307272,-1.48908 h -1.276357 v 15.85992 c 0.519997,0 1.039995,-0.0709 1.583629,-0.21273 2.765441,-0.70908 4.821795,-3.2618 4.821795,-6.28724 0,-1.86726 -0.803633,-3.54544 -2.056354,-4.72725 0.236362,-0.42545 0.37818,-0.94545 0.37818,-1.46545 0,-1.74908 -1.32363,-3.16725 -3.450893,-3.16725 z m 1.961809,5.76724 c 1.039995,1.06363 1.583629,2.31635 1.583629,3.63998 0,2.1509 -1.370903,3.97089 -3.238166,4.63271 v -7.72906 c 0.56727,-0.0473 1.063631,-0.21272 1.654537,-0.54363 z"
         style="font-style:normal;font-variant:normal;font-weight:normal;font-stretch:normal;font-size:23.63625145px;font-family:'Avenida Std';-inkscape-font-specification:'Avenida Std';text-align:center;text-anchor:middle;fill:#000000;fill-opacity:1;stroke-width:0.5937447"
         id="path823" />
    </g>
    <path
       id="path4"
       style="fill:#fafafa;fill-opacity:1"
       d="m 88.500354,187.24231 c 5.3e-4,-0.0229 0.30053,-0.63187 0.66649,-1.3532 1.1539,-2.2744 0.83224,-4.6338 -0.90085,-6.6076 -0.45823,-0.52189 -0.83314,-1.0158 -0.83314,-1.0975 0,-0.40865 2.4733,0.7701 3.2995,1.5725 1.2652,1.2287 1.6952,2.6713 1.2455,4.1783 -0.35921,1.2038 -1.9485,2.949 -2.9158,3.202 -0.30953,0.0809 -0.56229,0.12841 -0.56167,0.10548 z m 21.308996,4.0195 c -1.9647,-3.1134 -4.679,-7.3899 -6.0319,-9.5032 -1.3529,-2.1133 -2.4112,-3.9211 -2.3517,-4.0172 0.0594,-0.0961 1.3441,-0.20347 2.8548,-0.23854 l 2.7468,-0.0638 -0.92053,0.77546 c -0.90371,0.7613 -0.91465,0.79507 -0.59898,1.8487 0.34102,1.1382 2.3272,4.5099 5.8125,9.8673 l 2.1229,3.2632 3.2503,-5.6625 c 1.7876,-3.1144 3.3857,-6.0546 3.5513,-6.5337 0.41023,-1.187 0.11474,-2.1424 -0.82865,-2.6791 -0.43369,-0.24676 -0.78929,-0.53079 -0.79022,-0.63119 -8e-4,-0.10039 1.7978,-0.17643 3.9972,-0.16896 3.7454,0.0127 4.7759,0.20226 3.4269,0.63041 -0.98496,0.31262 -2.8156,2.2162 -4.0454,4.2066 -0.65002,1.052 -2.7154,4.5521 -4.5896,7.7779 -1.8743,3.2258 -3.5486,6.0731 -3.7207,6.3273 -0.2696,0.39822 -0.8073,-0.32129 -3.885,-5.1986 z m -63.718995,5.7143 c -5.3875,-3.4166 -5.6939,-12.056 -0.55381,-15.614 0.61399,-0.425 1.1658,-0.72331 1.2262,-0.66289 0.06042,0.0604 -0.29531,0.75242 -0.79051,1.5378 -1.5999,2.5374 -2.1256,6.4438 -1.3245,9.8417 0.47342,2.0081 0.95532,3.0071 2.1799,4.5189 1.0743,1.3264 0.89947,1.416 -0.73723,0.37806 z m -27.991,0.21524 c -1.3613,-0.70086 -2.8222,-2.2952 -3.6582,-3.9924 -0.57932,-1.1761 -0.7406,-1.9252 -0.81492,-3.7852 -0.14404,-3.6047 0.95592,-6.1257 3.4661,-7.944 1.399,-1.0134 1.7498,-1.0183 1.0349,-0.0144 -1.3495,1.8951 -1.9576,3.7616 -2.0845,6.3975 -0.18847,3.9139 0.66466,6.8898 2.5444,8.8757 0.88033,0.92998 0.71827,1.0837 -0.48782,0.46278 z m 71.732999,1.7371 c 0,-0.0746 0.35322,-0.62321 0.78493,-1.2192 1.6489,-2.2762 1.5999,-5.4226 -0.12441,-7.9849 -0.97946,-1.4555 -0.87696,-1.5814 0.65227,-0.80122 3.4815,1.7761 4.2548,5.6448 1.6723,8.3658 -0.88313,0.93048 -2.9851,2.0849 -2.9851,1.6395 z m -6.189299,-12.125 c 0.87184,-0.39571 1.2647,-0.78853 1.6604,-1.6604 0.64943,-1.4309 0.65193,-2.1808 0.01194,-3.5904 -0.76422,-1.6832 -3.251,-2.725 -5.2123,-2.1835 -1.0803,0.29829 -1.2011,0.79432 -1.2011,4.9317 v 3.0325 l 1.7995,-0.006 c 1.2024,-0.004 2.1785,-0.17785 2.9416,-0.52419 z m 2.3713,10.51 c 1.696799,-1.2415 2.318499,-4.1576 1.267099,-5.9432 -0.944089,-1.6035 -2.001199,-2.0223 -5.380299,-2.1314 l -2.9992,-0.0969 v 2.8433 c 0,3.2905 0.36635,5.0604 1.1668,5.637 0.88126,0.63486 4.9442,0.42384 5.9455,-0.3088 z m -8.3816,2.3422 -0.86938,-0.0931 0.13918,-21.96 2.9325,-0.0794 c 3.3995,-0.092 4.7437,0.20443 6.1378,1.3536 2.641199,2.1771 2.675799,6.5353 0.06649,8.3786 l -0.83312,0.58856 0.78016,0.28337 c 2.738299,0.99462 4.109599,2.8647 4.109599,5.6043 0,2.6495 -1.7226,4.9582 -4.262599,5.7131 -1.3721,0.40776 -5.397,0.51129 -8.2008,0.21093 z m -8.0616,-0.0135 c 0,-0.13603 0.37083,-0.40093 0.82406,-0.58867 0.45323,-0.18773 1.143,-0.82304 1.5329,-1.4118 l 0.70886,-1.0705 0.07698,-7.6181 c 0.07565,-7.4868 0.06646,-7.6388 -0.53319,-8.8178 -0.39848,-0.78347 -0.95676,-1.3847 -1.6092,-1.7329 -0.54946,-0.29326 -0.99934,-0.62317 -0.99973,-0.73314 -3.95e-4,-0.10997 1.199,-0.19994 2.6652,-0.19994 h 2.666 v 22.328 l -2.666,0.0459 c -1.4941,0.0258 -2.666,-0.0628 -2.666,-0.20139 z m 38.097995,-5.0441 c -1.944,-3.0425 -4.6507,-7.2818 -6.0148,-9.4205 -2.662196,-4.174 -4.663796,-6.4376 -6.116296,-6.917 -1.585,-0.52309 -1.0225,-0.8158 1.4122,-0.73494 l 2.3193,0.077 2.883396,4.5321 c 1.5859,2.4927 3.9455,6.2117 5.2437,8.2645 1.2982,2.0528 2.985,4.7105 3.7484,5.906 1.3797,2.1605 1.3855,2.1787 0.96126,2.9992 -0.23479,0.45402 -0.53389,0.82549 -0.66467,0.82549 -0.13079,0 -1.8284,-2.4893 -3.7724,-5.5318 z m -52.704995,5.1425 c -5.2628,-1.1969 -8.2124,-4.2868 -8.8435,-9.2642 -0.41748,-3.2928 0.23477,-6.3738 1.7771,-8.3943 1.6238,-2.1273 3.3018,-3.2744 6.0079,-4.107 3.192,-0.98218 8.7394,-0.92954 12.868,0.12211 l 1.3309,0.33898 0.07773,2.7824 c 0.11529,4.1264 -0.2429,5.0338 -1.072,2.7157 -0.64036,-1.7905 -1.8385,-3.1121 -3.61,-3.982 -1.4273,-0.7009 -1.7459,-0.75007 -4.8599,-0.75007 -3.0922,0 -3.4478,0.0539 -4.932,0.74707 -3.0226,1.4117 -4.6878,3.6777 -5.1448,7.001 -0.61851,4.4977 1.0491,8.3646 4.3309,10.043 4.2182,2.1568 10.662,1.5236 14.328,-1.4078 1.1276,-0.90162 1.4146,-0.70019 1.0541,0.73981 -0.13848,0.55323 -0.32357,1.3257 -0.4113,1.7167 -0.14562,0.64895 -0.37416,0.76197 -2.626,1.2988 -3.1445,0.74957 -7.9215,0.93568 -10.275,0.40032 z m -28.655,-0.0132 c -4.8254,-1.2156 -7.7096,-4.1194 -8.4788,-8.5368 -0.72026,-4.1361 0.51276,-8.4831 3.0277,-10.674 3.2967,-2.8721 8.5247,-3.899 14.855,-2.9182 4.385,0.67944 4.1276,0.49637 4.1603,2.9582 0.01544,1.1613 -0.03001,2.6813 -0.10099,3.3778 -0.13046,1.2801 -0.48697,1.6563 -0.75783,0.79979 -0.7523,-2.379 -2.5928,-4.4823 -4.516,-5.1608 -0.67568,-0.2384 -2.195,-0.37041 -4.2507,-0.36933 -2.9645,0.002 -3.3222,0.0584 -4.8764,0.7745 -2.1256,0.97938 -4.0838,3.0482 -4.7511,5.0192 -0.67601,1.9969 -0.63515,5.7496 0.08242,7.5702 1.2299,3.1205 3.7188,4.9359 7.5281,5.4911 3.8384,0.55945 7.617,-0.30285 10.494,-2.3948 0.70337,-0.51145 1.3342,-0.87459 1.4018,-0.80698 0.06761,0.0676 -0.06827,0.96957 -0.30195,2.0044 l -0.42488,1.8814 -2.3099,0.60087 c -2.956,0.76896 -8.4718,0.96517 -10.781,0.38351 z"
       inkscape:connector-curvature="0" />
    <g
       aria-label="Centro Cultural"
       style="font-style:normal;font-weight:normal;font-size:23.63625145px;line-height:1.25;font-family:sans-serif;text-align:center;letter-spacing:0px;word-spacing:0px;text-anchor:middle;fill:#fafafa;fill-opacity:1;stroke:none;stroke-width:0.5937447"
       id="text838">
      <path
         id="path1206"
         style="font-style:normal;font-variant:normal;font-weight:normal;font-stretch:normal;font-size:23.63625145px;font-family:'Avenida Std';-inkscape-font-specification:'Avenida Std';text-align:center;text-anchor:middle;fill:#fafafa;fill-opacity:1;stroke-width:0.5937447"
         d="m 127.78764,234.72037 v -1.48909 h -3.14362 v -11.10903 h -1.58363 v 12.59812 z m -7.02439,0 v -3.14362 h 0.77999 v -1.48909 h -0.77999 v -4.3018 c 0,-1.39453 -0.14182,-1.9618 -0.59091,-2.62362 -0.59091,-0.80363 -1.48908,-1.25272 -2.57635,-1.25272 -1.22909,0 -2.29272,0.63818 -2.78908,1.65454 -0.28363,0.54363 -0.35454,1.06363 -0.35454,2.33999 v 4.18361 h -0.78 v 1.48909 h 0.78 v 3.14362 h 1.58363 v -3.14362 h 3.14362 v 3.14362 z m -1.58363,-4.63271 H 116.036 v -4.93997 c 0,-1.06364 0.66181,-1.77272 1.6309,-1.77272 0.92181,0 1.51272,0.68545 1.51272,1.74908 z m -11.201,1.39454 2.7418,3.23817 h 2.07999 l -3.07271,-3.49817 c 1.74908,-0.70909 2.95453,-2.4109 2.95453,-4.3727 0,-2.00909 -1.22909,-4.72725 -5.4127,-4.72725 h -0.87454 v 12.59812 h 1.58363 z m 0,-7.89451 c 1.74908,0.0709 3.11998,1.51272 3.11998,3.26181 0,1.74908 -1.39454,3.19089 -3.11998,3.23816 z m -10.03396,7.35088 c 0,1.27635 0.09454,1.79635 0.354544,2.33999 0.519997,1.01635 1.559992,1.6309 2.789076,1.6309 1.11091,0 2.00908,-0.42546 2.57635,-1.22909 0.44909,-0.66181 0.59091,-1.22908 0.59091,-2.62362 v -8.9345 h -1.58363 v 9.57268 c -0.0473,1.06363 -0.56727,1.74908 -1.48908,1.74908 -0.99273,0 -1.607269,-0.73272 -1.654541,-1.77272 v -9.54904 H 97.94466 Z m -3.573878,3.7818 v -11.10904 h 2.363625 v -1.48908 h -6.310879 v 1.48908 h 2.363625 v 11.10904 z m -2.729983,0 v -1.48909 h -3.143621 v -11.10903 h -1.583629 v 12.59812 z m -13.177584,-3.7818 c 0,1.27635 0.09454,1.79635 0.354543,2.33999 0.519998,1.01635 1.559993,1.6309 2.789078,1.6309 1.110904,0 2.009081,-0.42546 2.576352,-1.22909 0.449088,-0.66181 0.590906,-1.22908 0.590906,-2.62362 v -8.9345 h -1.583629 v 9.57268 c -0.04727,1.06363 -0.56727,1.74908 -1.489084,1.74908 -0.992722,0 -1.607265,-0.73272 -1.654537,-1.77272 v -9.54904 h -1.583629 z m -1.492036,-10.47086 v -1.60727 c -0.56727,0.14182 -1.087267,0.30727 -1.559992,0.49636 -2.883623,1.22909 -4.939977,4.11271 -4.939977,7.4927 0,3.33271 2.032718,6.21633 4.939977,7.46905 0.472725,0.21273 0.992722,0.37818 1.559992,0.49636 v -1.6309 c -0.638178,-0.18909 -1.063631,-0.42545 -1.559992,-0.63818 -1.985445,-1.1109 -3.356348,-3.2618 -3.356348,-5.69633 0,-2.43454 1.347266,-4.5618 3.356348,-5.69634 0.496361,-0.30727 1.063631,-0.47273 1.559992,-0.68545 z m -20.152489,1.44181 c -3.592711,0 -6.49997,2.90726 -6.49997,6.49997 0,3.59271 2.907259,6.49997 6.49997,6.49997 3.59271,0 6.499969,-2.90726 6.499969,-6.49997 0,-3.59271 -2.907259,-6.49997 -6.499969,-6.49997 z m 0,1.58363 c 2.718168,0 4.91634,2.19817 4.91634,4.91634 0,2.71817 -2.198172,4.91634 -4.91634,4.91634 -2.718169,0 -4.916341,-2.19817 -4.916341,-4.91634 0,-2.71817 2.198172,-4.91634 4.916341,-4.91634 z m -12.500992,7.98905 2.741805,3.23817 h 2.07999 l -3.072712,-3.49817 c 1.749082,-0.70909 2.954531,-2.4109 2.954531,-4.3727 0,-2.00909 -1.229085,-4.72725 -5.412701,-4.72725 h -0.874542 v 12.59812 h 1.583629 z m 0,-7.89451 c 1.749083,0.0709 3.119985,1.51272 3.119985,3.26181 0,1.74908 -1.394539,3.19089 -3.119985,3.23816 z m -5.252048,11.13268 v -11.10904 h 2.363626 v -1.48908 h -6.31088 v 1.48908 h 2.363626 v 11.10904 z m -5.232475,0 v -12.59812 h -1.583629 v 3.33271 l -3.119985,-3.33271 h -1.583629 v 12.59812 h 1.583629 v -10.44723 l 3.119985,3.35635 v 7.09088 z m -8.506096,0 v -1.48909 h -3.143622 v -1.65453 h 3.923618 v -1.48909 h -3.923618 v -6.47633 h 3.143622 v -1.48908 h -4.727251 v 7.96541 h -0.779996 v 1.48909 h 0.779996 v 3.14362 z m -6.384743,-14.25266 v -1.60727 c -0.56727,0.14182 -1.087267,0.30727 -1.559992,0.49636 -2.883623,1.22909 -4.939977,4.11271 -4.939977,7.4927 0,3.33271 2.032718,6.21633 4.939977,7.46905 0.472725,0.21273 0.992722,0.37818 1.559992,0.49636 v -1.6309 c -0.638178,-0.18909 -1.063631,-0.42545 -1.559992,-0.63818 -1.985445,-1.1109 -3.356348,-3.2618 -3.356348,-5.69633 0,-2.43454 1.347266,-4.5618 3.356348,-5.69634 0.496361,-0.30727 1.063631,-0.47273 1.559992,-0.68545 z" />
    </g>
    <g
       aria-label="Barra Velha"
       style="font-style:normal;font-weight:normal;font-size:23.63625145px;line-height:1.25;font-family:sans-serif;text-align:center;letter-spacing:0px;word-spacing:0px;text-anchor:middle;fill:#fafafa;fill-opacity:1;stroke:none;stroke-width:0.5937447"
       id="text1125">
      <path
         id="path1228"
         style="font-style:normal;font-variant:normal;font-weight:normal;font-stretch:normal;font-size:23.63625145px;font-family:'Avenida Std';-inkscape-font-specification:'Avenida Std';text-align:center;text-anchor:middle;fill:#fafafa;fill-opacity:1;stroke-width:0.5937447"
         d="m 110.94312,269.4054 v -3.14363 h 0.78 v -1.48908 h -0.78 v -4.3018 c 0,-1.39454 -0.14182,-1.96181 -0.59091,-2.62362 -0.5909,-0.80363 -1.48908,-1.25272 -2.57635,-1.25272 -1.22908,0 -2.29272,0.63818 -2.78908,1.65453 -0.28363,0.54364 -0.35454,1.06364 -0.35454,2.33999 v 4.18362 h -0.78 v 1.48908 h 0.78 v 3.14363 h 1.58363 v -3.14363 h 3.14362 v 3.14363 z m -1.58363,-4.63271 h -3.14362 v -4.93998 c 0,-1.06363 0.66181,-1.77272 1.6309,-1.77272 0.92181,0 1.51272,0.68546 1.51272,1.74909 z m -7.09753,4.63271 v -3.14363 h 0.80364 v -1.48908 h -0.80364 v -7.96542 h -1.58362 v 7.96542 h -3.04908 v -7.96542 h -1.583629 v 7.96542 h -0.779997 v 1.48908 h 0.779997 v 3.14363 h 1.583629 v -3.14363 h 3.04908 v 3.14363 z m -7.653707,0 v -1.48909 h -3.143622 v -11.10904 h -1.583628 v 12.59813 z m -6.946105,0 v -1.48909 h -3.143621 v -1.65454 h 3.923617 v -1.48908 h -3.923617 v -6.47633 h 3.143621 v -1.48909 h -4.72725 v 7.96542 h -0.779997 v 1.48908 h 0.779997 v 3.14363 z m -10.112252,0 h 1.678174 l 2.718169,-15.76538 h -1.51272 l -1.985445,12.26721 -1.985445,-12.26721 h -1.607265 z m -9.724472,0 v -3.14363 h 0.779996 v -1.48908 h -0.779996 v -4.3018 c 0,-1.39454 -0.141818,-1.96181 -0.590906,-2.62362 -0.590907,-0.80363 -1.489084,-1.25272 -2.576352,-1.25272 -1.229085,0 -2.292716,0.63818 -2.789077,1.65453 -0.283635,0.54364 -0.354544,1.06364 -0.354544,2.33999 v 4.18362 h -0.779996 v 1.48908 h 0.779996 v 3.14363 h 1.583629 v -3.14363 h 3.143621 v 3.14363 z m -1.583629,-4.63271 h -3.143621 v -4.93998 c 0,-1.06363 0.661815,-1.77272 1.630901,-1.77272 0.921814,0 1.51272,0.68546 1.51272,1.74909 z m -11.200997,1.39454 2.741805,3.23817 h 2.07999 l -3.072713,-3.49817 c 1.749083,-0.70909 2.954532,-2.4109 2.954532,-4.37271 0,-2.00908 -1.229086,-4.72725 -5.412702,-4.72725 h -0.874541 v 12.59813 h 1.583629 z m 0,-7.89451 c 1.749082,0.0709 3.119985,1.51272 3.119985,3.2618 0,1.74909 -1.394539,3.1909 -3.119985,3.23817 z m -7.986468,7.89451 2.741805,3.23817 h 2.07999 l -3.072712,-3.49817 c 1.749082,-0.70909 2.954531,-2.4109 2.954531,-4.37271 0,-2.00908 -1.229085,-4.72725 -5.412701,-4.72725 h -0.874542 v 12.59813 h 1.583629 z m 0,-7.89451 c 1.749083,0.0709 3.119985,1.51272 3.119985,3.2618 0,1.74909 -1.394538,3.1909 -3.119985,3.23817 z m -3.880778,11.13268 v -3.14363 h 0.779997 v -1.48908 h -0.779997 v -4.3018 c 0,-1.39454 -0.141817,-1.96181 -0.590906,-2.62362 -0.590906,-0.80363 -1.489084,-1.25272 -2.576351,-1.25272 -1.229086,0 -2.292717,0.63818 -2.789078,1.65453 -0.283635,0.54364 -0.354544,1.06364 -0.354544,2.33999 v 4.18362 h -0.779996 v 1.48908 h 0.779996 v 3.14363 h 1.583629 v -3.14363 h 3.143621 v 3.14363 z m -1.583629,-4.63271 h -3.143621 v -4.93998 c 0,-1.06363 0.661815,-1.77272 1.630901,-1.77272 0.921814,0 1.51272,0.68546 1.51272,1.74909 z M 30.090518,255.1291 c 0.921813,0 1.678173,0.75636 1.678173,1.67817 0,0.92182 -0.75636,1.65454 -1.678173,1.65454 z m -0.307272,-1.48908 h -1.276357 v 15.85992 c 0.519997,0 1.039995,-0.0709 1.583629,-0.21273 2.765441,-0.70908 4.821795,-3.2618 4.821795,-6.28724 0,-1.86726 -0.803633,-3.54544 -2.056354,-4.72725 0.236362,-0.42545 0.37818,-0.94545 0.37818,-1.46545 0,-1.74908 -1.32363,-3.16725 -3.450893,-3.16725 z m 1.961809,5.76724 c 1.039995,1.06363 1.583629,2.31635 1.583629,3.63998 0,2.1509 -1.370903,3.97089 -3.238166,4.63271 v -7.72906 c 0.56727,-0.0473 1.063631,-0.21272 1.654537,-0.54363 z" />
    </g>
  </g>
</svg>
