<?xml version="1.0" encoding="UTF-8"?>
<!-- Generator: Adobe Illustrator 22.0.1, SVG Export Plug-In . SVG Version: 6.00 Build 0)  -->
<svg enable-background="new 0 0 24 24" version="1.1" viewBox="0 0 24 24" xml:space="preserve" xmlns="http://www.w3.org/2000/svg" xmlns:cc="http://creativecommons.org/ns#" xmlns:dc="http://purl.org/dc/elements/1.1/" xmlns:rdf="http://www.w3.org/1999/02/22-rdf-syntax-ns#"><metadata><rdf:RDF><cc:Work rdf:about=""><dc:format>image/svg+xml</dc:format><dc:type rdf:resource="http://purl.org/dc/dcmitype/StillImage"/><dc:title/></cc:Work></rdf:RDF></metadata>
<style type="text/css">
	.st0{fill:#808084;}
</style>
<path d="m17.7 15.8c-0.5-0.1-1.2 0.1-1.6 0.6l-2.6 2.6c-3.7-1.9-6.6-4.9-8.5-8.5l2.8-2.8c0.2-0.3 0.4-0.8 0.3-1.3-0.1-1.1-0.6-4.7-0.6-4.7-0.1-0.7-0.6-1.3-1.3-1.3h-4.5c-0.7 0-1.3 0.6-1.3 1.3 0 12.1 9.8 22 22 22 0.7 0 1.3-0.6 1.3-1.3v-4.5c0-0.7-0.6-1.2-1.3-1.3-0.1-0.1-3.7-0.6-4.7-0.8z" fill="#fff"/>
</svg>
