<?xml version="1.0" encoding="UTF-8"?>
<!-- Generator: Adobe Illustrator 22.0.1, SVG Export Plug-In . SVG Version: 6.00 Build 0)  -->
<svg enable-background="new 0 0 24 24" version="1.1" viewBox="0 0 24 24" xml:space="preserve" xmlns="http://www.w3.org/2000/svg" xmlns:cc="http://creativecommons.org/ns#" xmlns:dc="http://purl.org/dc/elements/1.1/" xmlns:rdf="http://www.w3.org/1999/02/22-rdf-syntax-ns#"><metadata><rdf:RDF><cc:Work rdf:about=""><dc:format>image/svg+xml</dc:format><dc:type rdf:resource="http://purl.org/dc/dcmitype/StillImage"/><dc:title/></cc:Work></rdf:RDF></metadata>
<style type="text/css">
	.st0{fill:#808084;}
</style>
<path class="st0" d="M17.7,15.8c-0.5-0.1-1.2,0.1-1.6,0.6L13.5,19c-3.7-1.9-6.6-4.9-8.5-8.5l2.8-2.8C8,7.4,8.2,6.9,8.1,6.4  C8,5.3,7.5,1.7,7.5,1.7C7.4,1,6.9,0.4,6.2,0.4H1.7C1,0.4,0.4,1,0.4,1.7c0,12.1,9.8,22,22,22c0.7,0,1.3-0.6,1.3-1.3v-4.5  c0-0.7-0.6-1.2-1.3-1.3C22.3,16.5,18.7,16,17.7,15.8z" fill="#fff"/>
</svg>
